<?xml version="1.0" encoding="UTF-8" standalone="no"?>
<!-- Uploaded to: SVG Repo, www.svgrepo.com, Generator: SVG Repo Mixer Tools -->

<svg
   fill="#000000"
   width="20px"
   height="20px"
   viewBox="0 0 32 32"
   version="1.1"
   id="svg1"
   sodipodi:docname="home.svg"
   inkscape:version="1.3.2 (091e20e, 2023-11-25, custom)"
   xmlns:inkscape="http://www.inkscape.org/namespaces/inkscape"
   xmlns:sodipodi="http://sodipodi.sourceforge.net/DTD/sodipodi-0.dtd"
   xmlns="http://www.w3.org/2000/svg"
   xmlns:svg="http://www.w3.org/2000/svg">
  <defs
     id="defs1" />
  <sodipodi:namedview
     id="namedview1"
     pagecolor="#ffffff"
     bordercolor="#000000"
     borderopacity="0.25"
     inkscape:showpageshadow="2"
     inkscape:pageopacity="0.0"
     inkscape:pagecheckerboard="0"
     inkscape:deskcolor="#d1d1d1"
     inkscape:zoom="38.85"
     inkscape:cx="9.98713"
     inkscape:cy="10"
     inkscape:window-width="1920"
     inkscape:window-height="991"
     inkscape:window-x="-9"
     inkscape:window-y="-9"
     inkscape:window-maximized="1"
     inkscape:current-layer="svg1" />
  <path
     d="M31.772 16.043l-15.012-15.724c-0.189-0.197-0.449-0.307-0.721-0.307s-0.533 0.111-0.722 0.307l-15.089 15.724c-0.383 0.398-0.369 1.031 0.029 1.414 0.399 0.382 1.031 0.371 1.414-0.029l1.344-1.401v14.963c0 0.552 0.448 1 1 1h6.986c0.551 0 0.998-0.445 1-0.997l0.031-9.989h7.969v9.986c0 0.552 0.448 1 1 1h6.983c0.552 0 1-0.448 1-1v-14.968l1.343 1.407c0.197 0.204 0.459 0.308 0.722 0.308 0.249 0 0.499-0.092 0.692-0.279 0.398-0.382 0.411-1.015 0.029-1.413zM26.985 14.213v15.776h-4.983v-9.986c0-0.552-0.448-1-1-1h-9.965c-0.551 0-0.998 0.445-1 0.997l-0.031 9.989h-4.989v-15.777c0-0.082-0.013-0.162-0.032-0.239l11.055-11.52 10.982 11.507c-0.021 0.081-0.036 0.165-0.036 0.252z"
     id="path1"
     style="stroke:none;stroke-opacity:1;fill:#dddbde;fill-opacity:1" />
</svg>
