<?xml version="1.0" encoding="UTF-8" standalone="no"?>
<!-- Uploaded to: SVG Repo, www.svgrepo.com, Generator: SVG Repo Mixer Tools -->

<svg
   fill="#000000"
   width="16.564491"
   height="13.223902"
   viewBox="0 0 19.87739 15.868682"
   version="1.1"
   id="svg1"
   sodipodi:docname="routeo.svg"
   inkscape:version="1.3.2 (091e20e, 2023-11-25, custom)"
   xmlns:inkscape="http://www.inkscape.org/namespaces/inkscape"
   xmlns:sodipodi="http://sodipodi.sourceforge.net/DTD/sodipodi-0.dtd"
   xmlns="http://www.w3.org/2000/svg"
   xmlns:svg="http://www.w3.org/2000/svg">
  <defs
     id="defs1" />
  <sodipodi:namedview
     id="namedview1"
     pagecolor="#ffffff"
     bordercolor="#000000"
     borderopacity="0.25"
     inkscape:showpageshadow="2"
     inkscape:pageopacity="0.0"
     inkscape:pagecheckerboard="0"
     inkscape:deskcolor="#d1d1d1"
     inkscape:zoom="31.08"
     inkscape:cx="9.1698842"
     inkscape:cy="10.891248"
     inkscape:window-width="1920"
     inkscape:window-height="991"
     inkscape:window-x="-9"
     inkscape:window-y="-9"
     inkscape:window-maximized="1"
     inkscape:current-layer="svg1" />
  <g
     id="Route"
     transform="translate(-2.0625103,-4.066)">
    <path
       d="m 21.792,17.086 c -0.58,-0.58 -1.16,-1.17 -1.75,-1.75 -0.08,-0.08 -0.16,-0.17 -0.25,-0.25 a 0.492,0.492 0 0 0 -0.7,0 0.5,0.5 0 0 0 0,0.71 l 1.14,1.14 H 9.282 a 2.22,2.22 0 0 1 0,-4.44 h 3 a 3.215,3.215 0 1 0 0,-6.43 h -5.27 a 2.5,2.5 0 1 0 0,1 h 5.27 a 2.215,2.215 0 1 1 0,4.43 h -3 a 3.22,3.22 0 1 0 0,6.44 h 10.96 l -0.9,0.9 c -0.09,0.08 -0.17,0.17 -0.25,0.25 a 0.5,0.5 0 0 0 0,0.71 0.511,0.511 0 0 0 0.7,0 l 1.75,-1.75 0.25,-0.25 a 0.5,0.5 0 0 0 0,-0.71 z M 4.562,8.066 a 1.5,1.5 0 1 1 1.5,-1.5 1.5,1.5 0 0 1 -1.5,1.5 z"
       id="path1"
       style="fill:#dddbde;fill-opacity:1" />
  </g>
</svg>
